<svg id="Layer_3" enable-background="new 0 0 64 64" height="512" viewBox="0 0 64 64" width="512" xmlns="http://www.w3.org/2000/svg"><g><g><path d="m19 43-1.485-1.485c-2.251-2.251-3.515-5.303-3.515-8.486v-.197c0-1.863.434-3.7 1.267-5.367l2.733-5.465-4.192 4.192c-2.438 2.438-3.808 5.745-3.808 9.193v.163c0 2.262.59 4.486 1.713 6.45l2.287 4.002" fill="#e8eff4"/></g><g><path d="m53.277 44.916c-.798-1.197-2.141-1.916-3.58-1.916h-.722c.006.166.025.331.025.497v1.526c0 2.574-.876 5.071-2.484 7.081-.981 1.228-1.516 2.752-1.516 4.323 0 .377.088.748.256 1.085l.488.975c.168.338.256.709.256 1.086 0 .146-.018.288-.043.427h4.254c.988 0 1.789-.801 1.789-1.789v-.106c0-.678-.383-1.297-.989-1.6l-.022-.011c-.606-.303-.989-.922-.989-1.6 0-.563.265-1.093.716-1.431l1.563-1.172c1.083-.813 1.721-2.088 1.721-3.442v-1.546c0-.85-.251-1.68-.723-2.387z" fill="#a8b0bc"/></g><g><path d="m14.723 44.916c.798-1.197 2.141-1.916 3.58-1.916h.722c-.006.166-.025.331-.025.497v1.526c0 2.574.876 5.071 2.484 7.081.981 1.228 1.516 2.752 1.516 4.323 0 .377-.088.748-.256 1.085l-.488.975c-.168.338-.256.709-.256 1.086 0 .146.018.288.043.427h-4.254c-.988 0-1.789-.801-1.789-1.789v-.106c0-.678.383-1.297.989-1.6l.022-.011c.606-.303.989-.922.989-1.6 0-.563-.265-1.093-.716-1.431l-1.563-1.172c-1.083-.813-1.721-2.088-1.721-3.442v-1.546c0-.85.251-1.68.723-2.387z" fill="#758190"/></g><g><path d="m44 32 .406.406c2.941 2.941 4.594 6.931 4.594 11.092v1.526c0 2.574-.876 5.071-2.484 7.081-.981 1.227-1.516 2.751-1.516 4.322 0 .377.088.748.256 1.085l.488.975c.168.338.256.709.256 1.086 0 1.34-1.087 2.427-2.427 2.427h-5.745c-1.274 0-2.351-.842-2.705-2h-2.247c-.354 1.158-1.431 2-2.705 2h-5.745c-1.339 0-2.426-1.087-2.426-2.427 0-.377.088-.748.256-1.085l.488-.975c.168-.338.256-.709.256-1.086 0-1.571-.535-3.095-1.516-4.322-1.608-2.01-2.484-4.507-2.484-7.081v-1.526c0-4.16 1.653-8.15 4.594-11.092l.406-.406" fill="#e8eff4"/></g><g><path d="m44.406 32.406-.406-.406h-5.975c-.011.166-.025.331-.025.5 0 4.142 3.358 7.5 7.5 7.5 1.043 0 2.036-.214 2.939-.599-.71-2.621-2.08-5.042-4.033-6.995z" fill="#a8b0bc"/></g><g><path d="m21.695 34.714c-1.741 2.576-2.695 5.629-2.695 8.783v1.526c0 2.574.876 5.071 2.484 7.081.249.312.468.643.659.989 3.452-1.575 5.857-5.05 5.857-9.093 0-4.216-2.613-7.816-6.305-9.286z" fill="#a8b0bc"/></g><g><path d="m24 27-3 3c1.951 1.951 4.463 3.244 7.185 3.697l1.815.303v-4" fill="#78b75b"/></g><g><path d="m44 27 3 3c-1.951 1.951-4.463 3.244-7.185 3.697l-1.815.303v-4" fill="#78b75b"/></g><g><path d="m38 30v4c0 2.209-1.791 4-4 4-2.209 0-4-1.791-4-4v-4" fill="#bf5763"/></g><g><path d="m25.305 8.669c1.027-3.841 4.531-6.669 8.695-6.669 4.164 0 7.667 2.828 8.695 6.667 0 0-.734 8.803-.734 8.803 1.844 1.367 3.039 3.559 3.039 6.03 0 4.142-3.358 7.5-7.5 7.5-1.265 0-2.455-.316-3.5-.869-1.045.553-2.235.869-3.5.869-4.142 0-7.5-3.358-7.5-7.5 0-2.471 1.195-4.663 3.039-6.029 0 0-.733-8.802-.734-8.802z" fill="#ebf7fe"/></g><g><path d="m38 14h4.25c.205-2.463.445-5.333.445-5.333-1.028-3.839-4.531-6.667-8.695-6.667v8c0 2.209 1.791 4 4 4z" fill="#a8b0bc"/></g><g><path d="m45.676 3.838s-2.676-1.338-2.676-1.338v2.5l-1 12 5.159-6.879c.546-.728.841-1.613.841-2.522 0-1.593-.9-3.049-2.324-3.761z" fill="#758190"/></g><g><path d="m22.324 3.838s2.676-1.338 2.676-1.338v2.5l1 12-5.159-6.879c-.546-.728-.841-1.613-.841-2.522 0-1.593.9-3.049 2.324-3.761z" fill="#758190"/></g><g><path d="m37.5 16c-1.265 0-2.455.316-3.5.869-1.045-.553-2.235-.869-3.5-.869-4.142 0-7.5 3.358-7.5 7.5s3.358 7.5 7.5 7.5c1.265 0 2.455-.316 3.5-.869 1.045.553 2.235.869 3.5.869 4.142 0 7.5-3.358 7.5-7.5s-3.358-7.5-7.5-7.5z" fill="#a8b0bc"/></g><g><path d="m36 23c0-1.105-.895-1-2-1s-2-.105-2 1 .895 3 2 3 2-1.895 2-3z" fill="#bf5763"/></g><g><path d="m34 39c-2.757 0-5-2.243-5-5v-3h2v3c0 1.654 1.346 3 3 3s3-1.346 3-3v-3h2v3c0 2.757-2.243 5-5 5z"/></g><g><path d="m33 30.131h2v4.869h-2z"/></g><g><path d="m26.271 8.927-1.932-.517c1.167-4.363 5.14-7.41 9.661-7.41s8.494 3.047 9.661 7.409l-1.932.517c-.934-3.489-4.112-5.926-7.729-5.926s-6.796 2.437-7.729 5.927z"/></g><g><path d="m42 18c-.119 0-.239-.021-.355-.065-.417-.158-.678-.573-.641-1.018l1-12-.004-1.715-2.446 1.63-1.109-1.664 3-2c.298-.2.681-.223 1.002-.062l3.676 1.838c1.774.887 2.877 2.671 2.877 4.655 0 1.119-.37 2.228-1.041 3.123l-5.159 6.878c-.193.257-.492.4-.8.4zm2-13.882v.882l-.716 8.621 3.075-4.1c.413-.551.641-1.233.641-1.922 0-1.222-.679-2.32-1.771-2.866z"/></g><g><path d="m26 18c-.309 0-.607-.143-.8-.4l-5.159-6.879c-.671-.894-1.041-2.003-1.041-3.122 0-1.984 1.103-3.768 2.877-4.655l3.676-1.838c.32-.16.703-.137 1.002.062l3 2-1.109 1.664-2.446-1.63v1.798l.997 11.917c.037.444-.225.859-.641 1.018-.117.044-.237.065-.356.065zm-1.998-13.883-1.23.615c-1.093.547-1.772 1.645-1.772 2.867 0 .689.228 1.372.641 1.922l3.074 4.099-.711-8.537z"/></g><g><path d="m37 7h2v4h-2z"/></g><g><path d="m29 7h2v4h-2z"/></g><g><path d="m42 15h-4c-2.757 0-5-2.243-5-5v-8h2v8c0 1.654 1.346 3 3 3h4z"/></g><g><path d="m37.5 32c-1.204 0-2.404-.26-3.5-.756-1.096.496-2.296.756-3.5.756-4.687 0-8.5-3.813-8.5-8.5 0-3.597 2.277-6.818 5.667-8.016l.667 1.886c-2.593.916-4.334 3.38-4.334 6.13 0 3.584 2.916 6.5 6.5 6.5 1.068 0 2.088-.253 3.032-.753.293-.155.643-.155.936 0 .944.5 1.964.753 3.032.753 3.584 0 6.5-2.916 6.5-6.5 0-2.75-1.741-5.214-4.333-6.13l.667-1.886c3.389 1.198 5.666 4.419 5.666 8.016 0 4.687-3.813 8.5-8.5 8.5z"/></g><g><path d="m34 27c-1.804 0-3-2.408-3-4 0-.596.179-1.076.531-1.425.593-.589 1.416-.585 2.212-.576l.257.001.256-.001c.796-.005 1.619-.012 2.212.576.353.349.532.829.532 1.425 0 1.592-1.196 4-3 4zm-1-3.983c.009.819.682 1.939 1.003 1.983.315-.043.988-1.164.997-1.983-.188-.023-.503-.021-.728-.019l-.272.002-.272-.001c-.226-.003-.539-.005-.728.018z"/></g><g><path d="m33 26h2v4h-2z"/></g><g><path d="m26 20h2v2h-2z"/></g><g><path d="m28 24h2v2h-2z"/></g><g><path d="m40 20h2v2h-2z"/></g><g><path d="m38 24h2v2h-2z"/></g><g><path d="m30.171 63h-5.744c-1.889 0-3.427-1.538-3.427-3.427 0-.528.125-1.058.362-1.532l.487-.975c.099-.198.151-.419.151-.639 0-1.339-.46-2.652-1.297-3.697-1.743-2.18-2.703-4.916-2.703-7.706v-1.526c0-4.457 1.736-8.647 4.887-11.799l.406-.406 1.414 1.414-.406.406c-2.774 2.774-4.301 6.462-4.301 10.385v1.526c0 2.337.804 4.63 2.265 6.457 1.119 1.398 1.735 3.155 1.735 4.946 0 .528-.125 1.058-.362 1.532l-.487.975c-.099.198-.151.419-.151.639 0 .787.64 1.427 1.427 1.427h5.744c1.009 0 1.829-.82 1.829-1.829 0-.488-.19-.947-.536-1.293-1.589-1.588-2.464-3.702-2.464-5.949v-.342c0-.925-.174-1.83-.518-2.689-.885-2.213-2.188-4.19-3.875-5.876l-.314-.314 1.414-1.414.314.314c1.878 1.878 3.331 4.082 4.318 6.548.439 1.096.661 2.251.661 3.431v.342c0 1.713.667 3.324 1.878 4.536.724.723 1.122 1.684 1.122 2.706 0 2.112-1.717 3.829-3.829 3.829z"/></g><g><path d="m43.573 63h-5.744c-2.112 0-3.829-1.717-3.829-3.829 0-1.022.398-1.984 1.122-2.707 1.211-1.211 1.878-2.822 1.878-4.535v-.342c0-1.18.222-2.335.661-3.431.987-2.467 2.439-4.67 4.318-6.548l.314-.314 1.414 1.414-.314.314c-1.686 1.686-2.989 3.663-3.875 5.876-.344.859-.518 1.764-.518 2.689v.342c0 2.248-.875 4.361-2.464 5.95-.346.345-.536.804-.536 1.292 0 1.009.82 1.829 1.829 1.829h5.744c.787 0 1.427-.64 1.427-1.427 0-.22-.052-.441-.151-.639l-.487-.974c-.237-.475-.362-1.004-.362-1.533 0-1.792.616-3.548 1.735-4.947 1.461-1.826 2.265-4.119 2.265-6.456v-1.526c0-3.923-1.527-7.611-4.301-10.385l-.406-.406 1.414-1.414.406.406c3.151 3.151 4.887 7.342 4.887 11.799v1.526c0 2.79-.96 5.526-2.703 7.706-.837 1.045-1.297 2.358-1.297 3.697 0 .22.052.441.151.639l.487.974c.237.475.362 1.004.362 1.533 0 1.889-1.538 3.427-3.427 3.427z"/></g><g><path d="m22 61h-4.211c-1.538 0-2.789-1.251-2.789-2.789v-.105c0-1.063.591-2.019 1.542-2.494.291-.146.458-.417.458-.717 0-.247-.118-.483-.315-.631l-1.563-1.172c-1.329-.998-2.122-2.584-2.122-4.243v-1.546c0-1.05.308-2.067.891-2.941.985-1.479 2.635-2.362 4.412-2.362h.697v2h-.697c-1.107 0-2.134.55-2.748 1.471-.363.544-.555 1.178-.555 1.832v1.546c0 1.034.494 2.021 1.321 2.643l1.563 1.172c.699.524 1.116 1.357 1.116 2.231 0 1.063-.591 2.019-1.542 2.494-.291.145-.458.416-.458.716v.105c0 .436.354.79.789.79h4.211z"/></g><g><path d="m50.211 61h-4.211v-2h4.211c.435 0 .789-.354.789-.789v-.105c0-.301-.167-.571-.436-.706-.973-.487-1.564-1.442-1.564-2.505 0-.873.417-1.707 1.115-2.231l1.563-1.173c.828-.621 1.322-1.609 1.322-2.642v-1.546c0-.654-.192-1.288-.555-1.832-.613-.921-1.641-1.471-2.748-1.471h-.697v-2h.697c1.777 0 3.426.883 4.412 2.361.583.875.891 1.892.891 2.942v1.546c0 1.66-.793 3.246-2.121 4.242l-1.563 1.173c-.198.148-.316.383-.316.631 0 .301.167.571.436.706.973.486 1.564 1.441 1.564 2.504v.105c0 1.539-1.251 2.79-2.789 2.79z"/></g><g><path d="m29.835 34.986-1.815-.303c-2.945-.491-5.617-1.866-7.728-3.977-.391-.391-.391-1.023 0-1.414l3-3 1.414 1.414-2.264 2.265c1.683 1.432 3.706 2.373 5.907 2.739l1.815.303z"/></g><g><path d="m38.165 34.986-.329-1.973 1.815-.303c2.201-.367 4.224-1.308 5.907-2.739l-2.264-2.265 1.414-1.414 3 3c.391.391.391 1.023 0 1.414-2.11 2.111-4.783 3.486-7.728 3.977z"/></g><g><path d="m13.132 46.496-2.287-4.002c-1.207-2.112-1.845-4.514-1.845-6.946v-.163c0-3.74 1.456-7.255 4.101-9.899l4.192-4.192c.346-.348.894-.392 1.292-.104.398.287.529.819.31 1.258l-2.733 5.466c-.761 1.519-1.162 3.219-1.162 4.919v.196c0 2.938 1.144 5.701 3.222 7.778l1.485 1.485-1.414 1.414-1.485-1.485c-2.456-2.454-3.808-5.719-3.808-9.192v-.196c0-1.989.466-3.98 1.347-5.763-2.16 2.246-3.347 5.189-3.347 8.315v.163c0 2.085.547 4.144 1.581 5.954l2.287 4.002z"/></g></g></svg>